<svg width="280" height="255" viewBox="0 0 280 255" fill="none" xmlns="http://www.w3.org/2000/svg">
<path opacity="0.1" fill-rule="evenodd" clip-rule="evenodd" d="M436.986 194.887C455.049 235.94 461.265 285.255 442.581 326.029C424.283 365.962 382.719 391.302 340.869 404.647C305.063 416.064 269.006 391.604 231.464 393.347C187.036 395.41 142.045 437.397 103.232 415.68C65.2077 394.405 67.053 339.047 58.1757 296.389C49.835 256.31 35.3803 213.385 53.4932 176.672C71.1646 140.854 117.17 133.467 149.87 110.534C184.334 86.3645 207.952 38.394 250.044 38.8294C292.124 39.2647 316.364 85.6225 348.669 112.591C380.334 139.025 420.373 157.132 436.986 194.887Z" fill="#37AAE5"/>
<path d="M243.233 244.281L246.209 255.681L279.583 255.37C279.583 255.37 275.021 251.93 258.246 252.178L256.618 244.281H243.233Z" fill="#FFBE9D"/>
<path d="M206.843 115.493L181.816 117.856L171.645 120.737C167.294 121.961 163.313 124.24 160.054 127.37L127.281 158.813L121.299 109.969L104.929 111.389L107.655 174.265C108.863 178.05 111.243 181.353 114.453 183.697C117.662 186.041 121.534 187.303 125.509 187.302C130.436 187.236 135.152 185.294 138.696 181.872L162.024 159.953L159.712 188.878L151.687 206.869L208.969 239.224C208.969 239.224 215.697 205.936 219.336 182.898C222.25 164.243 223.743 123.69 223.743 123.69L206.843 115.493Z" fill="#36AAE7"/>
<path d="M222.228 123.152C222.228 123.152 234.898 127.836 237.956 137.754C240.673 146.553 249.734 195.997 249.734 195.997L258.723 248.334L239.895 249.049L218.227 159.849L222.228 123.152Z" fill="#36AAE7"/>
<path d="M159.235 187.603C159.089 187.603 159.929 177.571 161.111 165.228C162.293 152.885 163.371 142.884 163.516 142.894C163.662 142.905 162.832 152.926 161.65 165.28C160.468 177.633 159.38 187.613 159.235 187.603Z" fill="#263238"/>
<path d="M200.964 163C200.934 163.17 200.878 163.334 200.798 163.487L200.228 164.855C199.979 165.445 199.658 166.161 199.191 166.927C198.725 167.694 198.31 168.669 197.678 169.632C197.377 170.119 197.066 170.669 196.734 171.166C196.403 171.664 195.998 172.203 195.615 172.773C194.858 173.902 193.925 175.001 192.96 176.182C190.804 178.684 188.423 180.984 185.848 183.053C183.25 185.09 180.474 186.89 177.554 188.432C176.186 189.095 174.89 189.758 173.625 190.235C173.003 190.484 172.401 190.764 171.81 190.961L170.1 191.541C169.063 191.935 168.026 192.152 167.114 192.391C166.364 192.603 165.602 192.773 164.833 192.899L163.371 193.147C163.358 193.21 163.322 193.266 163.271 193.304C163.219 193.342 163.155 193.36 163.091 193.353C163.027 193.347 162.968 193.317 162.925 193.269C162.882 193.222 162.858 193.16 162.858 193.096C162.858 193.031 162.882 192.969 162.925 192.922C162.968 192.874 163.027 192.844 163.091 192.838C163.155 192.831 163.219 192.849 163.271 192.887C163.322 192.925 163.358 192.981 163.371 193.044L164.802 192.691C165.565 192.534 166.319 192.336 167.062 192.101C167.922 191.842 168.928 191.593 169.996 191.178L171.686 190.577C172.267 190.36 172.858 190.08 173.469 189.831C174.724 189.334 175.989 188.66 177.336 187.986C180.218 186.437 182.965 184.648 185.548 182.639C188.088 180.578 190.453 178.311 192.618 175.861C193.583 174.7 194.516 173.622 195.283 172.513C195.677 171.964 196.081 171.477 196.413 170.938L197.387 169.435C198.03 168.492 198.497 167.57 198.953 166.782C199.409 165.995 199.762 165.3 199.99 164.71C200.218 164.119 200.467 163.746 200.653 163.393C200.741 163.251 200.846 163.118 200.964 163Z" fill="#263238"/>
<g opacity="0.2">
<path opacity="0.2" d="M165.88 192.671C164.994 192.325 164.268 191.663 163.843 190.813C163.418 189.963 163.323 188.985 163.579 188.069C163.87 187.164 164.354 186.333 164.996 185.632C165.639 184.931 166.425 184.377 167.301 184.007C169.059 183.285 170.886 182.744 172.754 182.39C180.808 180.417 188.173 176.29 194.06 170.451C194.599 169.912 195.366 169.311 196.04 169.684C196.942 170.171 196.372 171.55 195.708 172.327C187.6 181.745 177.092 188.793 165.3 192.722" fill="black"/>
</g>
<path d="M223.068 180.898C222.905 180.566 222.776 180.219 222.685 179.861C222.477 179.167 222.187 178.162 221.855 176.908C221.182 174.4 220.311 170.928 219.44 167.062C218.569 163.197 217.864 159.683 217.366 157.134C217.128 155.859 216.962 154.823 216.858 154.108C216.767 153.738 216.728 153.358 216.744 152.978C216.889 153.328 216.994 153.693 217.055 154.066L217.739 157.061C218.33 159.714 219.087 163.145 219.927 166.948C220.767 170.752 221.576 174.203 222.187 176.814C222.446 177.985 222.664 178.991 222.851 179.809C222.975 180.16 223.048 180.526 223.068 180.898Z" fill="#263238"/>
<path d="M107.832 116.084C107.496 115.305 107.329 114.464 107.344 113.617C107.19 112.786 107.211 111.931 107.407 111.109C107.738 111.888 107.9 112.729 107.883 113.576C108.037 114.406 108.019 115.26 107.832 116.084Z" fill="#263238"/>
<path d="M112.621 116.239C112.308 115.398 112.17 114.503 112.217 113.607C112.076 112.723 112.122 111.819 112.352 110.954C112.652 111.797 112.79 112.691 112.756 113.586C112.885 114.471 112.839 115.372 112.621 116.239Z" fill="#263238"/>
<path d="M117.38 115.897C116.911 113.975 116.799 111.983 117.048 110.021C117.372 110.96 117.52 111.951 117.484 112.943C117.626 113.926 117.591 114.927 117.38 115.897Z" fill="#263238"/>
<path d="M126.587 166.316C126.467 164.87 126.526 163.415 126.763 161.984C126.816 160.536 127.056 159.101 127.478 157.714C127.592 159.16 127.533 160.614 127.302 162.046C127.237 163.493 126.997 164.927 126.587 166.316Z" fill="#263238"/>
<path d="M242.995 243.546C243.4 244.366 243.647 245.256 243.721 246.168C243.964 247.051 244.031 247.974 243.918 248.883C243.505 248.065 243.258 247.174 243.192 246.261C242.949 245.377 242.882 244.455 242.995 243.546Z" fill="#263238"/>
<path d="M249.185 243.546C249.576 244.28 249.806 245.089 249.859 245.919C250.076 246.722 250.122 247.563 249.993 248.385C249.602 247.651 249.372 246.842 249.319 246.012C249.102 245.209 249.056 244.368 249.185 243.546Z" fill="#263238"/>
<path d="M255.053 242.945C255.402 243.804 255.612 244.713 255.675 245.639C255.913 246.531 256.015 247.453 255.975 248.375C255.494 247.568 255.21 246.659 255.146 245.722C254.903 244.815 254.872 243.865 255.053 242.945Z" fill="#263238"/>
<path d="M232.389 129.193C232.389 129.287 231.072 129.194 229.04 129.639C226.379 130.178 223.903 131.399 221.856 133.183C219.809 134.968 218.262 137.253 217.366 139.816C216.672 141.785 216.568 143.091 216.475 143.081C216.425 142.775 216.425 142.464 216.475 142.158C216.57 141.322 216.744 140.496 216.993 139.692C217.821 137.014 219.379 134.62 221.493 132.779C223.606 130.937 226.191 129.721 228.957 129.266C229.785 129.121 230.626 129.059 231.466 129.079C231.778 129.062 232.091 129.101 232.389 129.193Z" fill="#263238"/>
<path d="M240.134 150.47C239.135 150.995 238.095 151.435 237.023 151.786C235.064 152.532 232.327 153.486 229.279 154.439C226.231 155.393 223.442 156.16 221.41 156.657C220.323 156.986 219.209 157.218 218.082 157.351C219.131 156.932 220.208 156.585 221.306 156.315L229.123 153.942L236.889 151.444C237.944 151.038 239.029 150.712 240.134 150.47Z" fill="#FAFAFA"/>
<path d="M248.117 186.535C247.06 186.916 245.975 187.21 244.872 187.416C242.85 187.893 240.051 188.515 236.961 189.168C233.872 189.821 231.052 190.38 229.019 190.764C227.926 191.024 226.813 191.194 225.691 191.272C226.747 190.889 227.832 190.595 228.936 190.391C230.948 189.914 233.747 189.292 236.847 188.639C239.947 187.986 242.757 187.427 244.799 187.043C245.889 186.783 246.999 186.613 248.117 186.535Z" fill="#FAFAFA"/>
<path d="M257.168 231.7C256.136 231.826 255.097 231.878 254.058 231.855C252.14 231.907 249.496 231.99 246.572 232.156C243.649 232.322 241.005 232.55 239.097 232.716C238.067 232.862 237.027 232.928 235.987 232.913C237.001 232.615 238.043 232.421 239.097 232.332C241.005 232.073 243.649 231.783 246.583 231.617C249.517 231.451 252.181 231.42 254.099 231.472C255.127 231.448 256.155 231.524 257.168 231.7Z" fill="#FAFAFA"/>
<path d="M174.081 189.24C173.328 189.025 172.603 188.719 171.924 188.328L166.844 185.903L161.754 183.499C161.023 183.218 160.327 182.853 159.68 182.411C160.446 182.569 161.19 182.816 161.899 183.146C163.247 183.675 165.082 184.463 167.083 185.406C169.084 186.349 170.836 187.282 172.101 187.986C172.808 188.325 173.472 188.746 174.081 189.24Z" fill="#FAFAFA"/>
<path d="M215.801 196.319C215.379 196.204 214.969 196.047 214.577 195.852L211.332 194.432C208.585 193.23 204.77 191.593 200.519 189.893C196.268 188.194 192.38 186.784 189.55 185.748L186.211 184.525C185.792 184.405 185.388 184.234 185.009 184.017C185.439 184.082 185.862 184.186 186.274 184.328C187.093 184.556 188.254 184.919 189.685 185.364C192.536 186.297 196.455 187.696 200.726 189.396C204.998 191.095 208.782 192.795 211.498 194.09C212.856 194.733 213.945 195.272 214.691 195.666C215.085 195.84 215.458 196.059 215.801 196.319Z" fill="#FAFAFA"/>
<path d="M219.056 166.876C218.858 166.877 218.66 166.86 218.465 166.824L216.806 166.575L210.731 165.591C205.599 164.751 198.507 163.621 190.659 162.481C182.811 161.341 175.688 160.409 170.535 159.694L164.429 158.896L162.77 158.647C162.575 158.64 162.382 158.601 162.2 158.533C162.392 158.503 162.588 158.503 162.78 158.533L164.449 158.668C165.901 158.802 167.995 159.02 170.577 159.31C175.761 159.891 182.883 160.782 190.742 161.943C198.601 163.103 205.682 164.285 210.793 165.228C213.354 165.694 215.417 166.088 216.848 166.378L218.486 166.72C218.681 166.75 218.873 166.803 219.056 166.876Z" fill="#FAFAFA"/>
<path d="M216.703 135.774C216.703 135.919 205.464 134.365 191.654 132.303C177.844 130.24 166.647 128.447 166.668 128.292C166.689 128.136 177.907 129.701 191.727 131.764C205.547 133.826 216.723 135.588 216.703 135.774Z" fill="#FAFAFA"/>
<path d="M157.939 162.969C157.343 161.883 156.823 160.758 156.383 159.6L152.744 151.403C151.324 148.294 150.028 145.454 149.022 143.236C148.454 142.129 147.966 140.983 147.561 139.806C147.77 140.067 147.948 140.352 148.089 140.656C148.411 141.215 148.846 142.044 149.365 143.07C150.401 145.143 151.791 147.983 153.232 151.185C154.673 154.387 155.896 157.31 156.736 159.476C157.161 160.512 157.493 161.414 157.7 162.025C157.822 162.328 157.902 162.645 157.939 162.969Z" fill="#FAFAFA"/>
<path d="M135.648 184.815C135.503 184.815 134.072 178.597 132.455 170.845C130.837 163.093 129.645 156.781 129.79 156.75C129.935 156.719 131.366 162.969 132.984 170.731C134.601 178.493 135.752 184.784 135.648 184.815Z" fill="#FAFAFA"/>
<path d="M126.379 150.812C123.183 151.783 119.936 152.582 116.654 153.206C113.413 153.989 110.132 154.598 106.826 155.03C110.019 154.071 113.262 153.286 116.54 152.677C119.784 151.879 123.068 151.256 126.379 150.812Z" fill="#FAFAFA"/>
<path d="M123.124 122.478C122.297 122.757 121.442 122.944 120.574 123.038C118.977 123.307 116.769 123.628 114.353 123.898C111.937 124.167 109.687 124.364 108.132 124.457C107.26 124.55 106.381 124.55 105.509 124.457C106.357 124.231 107.225 124.092 108.101 124.043L114.322 123.338L120.542 122.623C121.395 122.481 122.261 122.432 123.124 122.478Z" fill="#FAFAFA"/>
<path d="M131.553 73.2404C131.853 73.8311 139.629 113.835 139.629 113.835L121.278 114.695L114.166 80.2877L131.553 73.2404Z" fill="#455A64"/>
<path d="M139.629 113.835L141.734 112.943L133.792 73.5099L131.304 73.3441L139.629 113.835Z" fill="#263238"/>
<path d="M124.171 81.9873C124.195 82.1757 124.162 82.3668 124.077 82.5364C123.991 82.7059 123.857 82.8461 123.691 82.939C123.526 83.0318 123.336 83.0732 123.147 83.0576C122.958 83.0421 122.777 82.9705 122.629 82.8519C122.481 82.7333 122.371 82.5732 122.314 82.392C122.258 82.2108 122.257 82.0168 122.311 81.8349C122.365 81.653 122.472 81.4914 122.619 81.3708C122.766 81.2503 122.945 81.1762 123.134 81.1582C123.382 81.132 123.629 81.2044 123.823 81.3596C124.017 81.5149 124.142 81.7405 124.171 81.9873Z" fill="#263238"/>
<path d="M120.387 110.073L120.097 104.829L127.935 101.606L124.876 94.3511C124.524 93.5503 124.009 92.8315 123.364 92.24C122.719 91.6484 121.958 91.1972 121.13 90.9147C120.302 90.6322 119.424 90.5246 118.552 90.5988C117.679 90.673 116.832 90.9273 116.064 91.3456L112.953 93.0452C111.845 93.6469 110.876 94.4744 110.108 95.4741C109.34 96.4738 108.791 97.6235 108.495 98.8489C107.631 103.07 107.004 107.336 106.619 111.627" fill="#FFBE9D"/>
<path d="M99.361 243.432C99.361 243.432 67.1071 252.365 65.8111 252.821C63.862 253.505 64.1938 260.615 67.2108 260.511C68.6415 260.459 91.9999 261.381 94.9444 261.195C97.8888 261.008 106.795 257.505 106.795 257.505L99.361 243.432Z" fill="#36AAE7"/>
<path d="M85.9557 255.744C85.5514 254.563 85.0771 253.407 84.5353 252.282C83.8325 251.248 83.071 250.255 82.2544 249.308C83.4522 249.869 84.4218 250.824 85.0018 252.013C85.7392 253.11 86.076 254.427 85.9557 255.744Z" fill="#263238"/>
<path d="M89.3148 254.22C89.1593 254.22 88.8379 252.717 87.9774 251.038C87.1168 249.36 86.1008 248.168 86.2149 248.064C87.2185 248.727 87.9989 249.677 88.4543 250.79C89.077 251.822 89.3767 253.016 89.3148 254.22Z" fill="#263238"/>
<path d="M92.4769 253.37C92.3122 252.216 92.0591 251.076 91.72 249.961C91.2162 248.909 90.6267 247.9 89.9575 246.945C91.0404 247.565 91.848 248.572 92.2177 249.764C92.7586 250.89 92.8513 252.179 92.4769 253.37Z" fill="#263238"/>
<path d="M91.8962 249.204C91.6138 248.439 91.4971 247.623 91.5541 246.81C91.5599 245.923 91.6713 245.039 91.8859 244.178C92.0037 243.668 92.1632 243.169 92.3628 242.685C92.4576 242.376 92.6372 242.1 92.8812 241.887C93.0436 241.765 93.2441 241.704 93.4472 241.716C93.6503 241.727 93.8428 241.81 93.9905 241.95C94.2396 242.191 94.391 242.516 94.4156 242.862C94.436 243.145 94.436 243.429 94.4156 243.711C94.405 244.242 94.339 244.77 94.2186 245.287C93.9916 246.154 93.6425 246.984 93.1818 247.753C92.8297 248.488 92.3365 249.147 91.7303 249.691C91.6578 249.639 92.1969 248.893 92.8501 247.619C93.2207 246.855 93.5025 246.052 93.6898 245.225C93.7955 244.738 93.8477 244.241 93.8454 243.743C93.8454 243.255 93.8454 242.634 93.5447 242.395C93.486 242.344 93.4104 242.315 93.3322 242.315C93.2539 242.315 93.1783 242.344 93.1196 242.395C92.9604 242.556 92.8399 242.751 92.7671 242.965C92.574 243.427 92.4112 243.902 92.2798 244.385C92.0587 245.209 91.9164 246.052 91.8548 246.903C91.8444 248.282 91.9895 249.194 91.8962 249.204Z" fill="#263238"/>
<path d="M91.938 248.883C92.5921 248.606 93.303 248.488 94.0115 248.541C94.7837 248.543 95.5528 248.637 96.3028 248.821C96.761 248.925 97.2036 249.089 97.6195 249.308C97.8845 249.44 98.0989 249.656 98.2299 249.922C98.3609 250.187 98.4014 250.489 98.3452 250.779C98.2734 251.058 98.1275 251.312 97.9231 251.514C97.7187 251.717 97.4633 251.86 97.184 251.93C96.7111 252.049 96.2159 252.049 95.7429 251.93C94.2996 251.514 93.0346 250.632 92.1453 249.422C92.746 249.788 93.3241 250.189 93.8767 250.624C94.4721 251.034 95.1409 251.326 95.8466 251.484C96.242 251.578 96.6538 251.578 97.0493 251.484C97.236 251.436 97.4068 251.34 97.545 251.205C97.6832 251.071 97.7839 250.902 97.8372 250.717C97.8646 250.536 97.8317 250.351 97.7437 250.19C97.6557 250.029 97.5174 249.901 97.3499 249.826C96.983 249.619 96.5886 249.466 96.1784 249.37C95.4715 249.167 94.7452 249.038 94.0115 248.987C92.7467 248.831 91.9587 248.966 91.938 248.883Z" fill="#263238"/>
<path d="M80.9999 256.086C80.8692 255.098 80.6541 254.124 80.3571 253.173C79.9069 252.279 79.3796 251.426 78.7812 250.624C78.8331 250.489 80.1809 251.256 80.8548 252.945C81.1048 253.427 81.2472 253.957 81.2723 254.5C81.2973 255.042 81.2044 255.583 80.9999 256.086Z" fill="#263238"/>
<path d="M133.637 234.529C133.637 234.529 164.169 254.51 165.258 255.339C166.906 256.583 165.02 262.49 162.148 261.475C160.8 260.988 135.192 253.868 132.434 252.79C129.676 251.712 122.263 245.681 122.263 245.681L133.637 234.529Z" fill="#36AAE7"/>
<path d="M142.698 250.334C143.003 249.044 143.734 247.894 144.772 247.069C145.683 246.111 146.9 245.499 148.214 245.339C147.131 245.98 146.092 246.693 145.104 247.473C144.249 248.381 143.446 249.336 142.698 250.334Z" fill="#263238"/>
<path d="M139.961 247.867C140.355 246.743 140.99 245.718 141.823 244.866C142.656 244.013 143.666 243.354 144.782 242.934C144.865 243.079 143.527 243.877 142.211 245.235C140.894 246.592 140.106 247.94 139.961 247.867Z" fill="#263238"/>
<path d="M137.213 246.095C137.31 244.869 137.778 243.701 138.554 242.746C139.329 241.791 140.377 241.094 141.557 240.747C140.632 241.454 139.766 242.234 138.966 243.079C138.304 244.037 137.718 245.046 137.213 246.095Z" fill="#263238"/>
<path d="M139.028 242.333C138.945 242.333 139.36 241.473 139.712 240.053C139.918 239.224 140.039 238.377 140.075 237.524C140.106 237.024 140.106 236.522 140.075 236.022C140.067 235.798 140.011 235.579 139.909 235.379C139.863 235.313 139.794 235.266 139.716 235.247C139.638 235.228 139.556 235.238 139.484 235.275C139.142 235.421 138.955 236.011 138.79 236.478C138.641 236.95 138.54 237.436 138.489 237.929C138.414 238.775 138.442 239.628 138.572 240.468C138.79 241.919 139.07 242.799 138.987 242.831C138.582 242.124 138.314 241.346 138.199 240.54C138.009 239.669 137.943 238.776 138.002 237.887C138.035 237.356 138.132 236.83 138.292 236.322C138.37 236.05 138.467 235.783 138.582 235.524C138.717 235.203 138.964 234.942 139.277 234.788C139.456 234.709 139.656 234.693 139.845 234.744C140.034 234.795 140.199 234.909 140.314 235.068C140.477 235.344 140.563 235.659 140.562 235.98C140.669 237.38 140.507 238.787 140.086 240.126C139.891 240.927 139.531 241.679 139.028 242.333Z" fill="#263238"/>
<path d="M139.08 241.981C139.08 242.064 138.333 241.691 137.1 241.4C136.384 241.219 135.65 241.118 134.912 241.1C134.492 241.072 134.071 241.096 133.658 241.172C133.475 241.196 133.305 241.278 133.174 241.407C133.043 241.536 132.958 241.705 132.932 241.887C132.925 242.081 132.969 242.273 133.06 242.444C133.151 242.615 133.285 242.759 133.45 242.862C133.792 243.074 134.179 243.202 134.58 243.235C135.303 243.301 136.032 243.228 136.726 243.017C137.389 242.775 138.068 242.581 138.758 242.437C138.195 242.865 137.56 243.188 136.882 243.39C136.143 243.661 135.356 243.777 134.57 243.732C134.081 243.703 133.608 243.553 133.191 243.297C132.947 243.144 132.748 242.929 132.615 242.674C132.482 242.419 132.42 242.133 132.434 241.846C132.471 241.552 132.602 241.278 132.807 241.065C133.013 240.852 133.282 240.712 133.575 240.665C134.039 240.578 134.514 240.557 134.985 240.602C135.753 240.65 136.512 240.793 137.245 241.027C137.923 241.196 138.552 241.523 139.08 241.981Z" fill="#263238"/>
<path d="M158.281 260.355C158.281 260.407 157.762 260.045 157.534 259.174C157.29 258.036 157.494 256.848 158.104 255.858C158.411 255.324 158.758 254.815 159.141 254.334C159.435 253.92 159.784 253.547 160.178 253.225C160.456 252.998 160.795 252.858 161.153 252.821C161.401 252.821 161.536 252.873 161.536 252.904C161.121 253.02 160.738 253.229 160.416 253.515C160.088 253.857 159.796 254.232 159.546 254.635C159.196 255.107 158.877 255.602 158.592 256.117C158.041 257.005 157.804 258.052 157.918 259.091C158.021 259.889 158.353 260.304 158.281 260.355Z" fill="#263238"/>
<path d="M147.322 252.168C147.332 251.099 147.713 250.066 148.399 249.246C149.085 248.426 150.035 247.869 151.086 247.67C150.272 248.239 149.512 248.881 148.815 249.588C148.244 250.403 147.744 251.266 147.322 252.168Z" fill="#263238"/>
<path d="M125.425 246.758C125.891 247.032 126.338 247.337 126.763 247.67C127.971 248.513 129.228 249.285 130.526 249.981C132.459 251.016 134.457 251.923 136.508 252.697C138.82 253.557 141.412 254.365 144.149 255.163C149.644 256.738 154.621 258.189 158.208 259.309L162.448 260.604C162.973 260.747 163.486 260.93 163.983 261.153C163.441 261.093 162.906 260.978 162.386 260.811L158.094 259.671C154.486 258.687 149.499 257.298 144.004 255.723C141.257 254.925 138.644 254.096 136.332 253.194C134.268 252.415 132.265 251.483 130.34 250.406C129.049 249.673 127.812 248.849 126.638 247.94C126.194 247.589 125.788 247.193 125.425 246.758Z" fill="#263238"/>
<path d="M124.244 247.162C125.067 246.801 125.941 246.57 126.836 246.478C129.005 246.068 131.248 246.344 133.253 247.266C134.357 247.803 135.314 248.6 136.042 249.588C136.613 250.381 137.093 251.236 137.473 252.137C137.863 252.944 138.148 253.797 138.323 254.676C137.866 253.915 137.464 253.122 137.12 252.303C136.3 250.369 134.869 248.757 133.046 247.712C131.128 246.857 129.011 246.549 126.929 246.82C126.04 246.98 125.144 247.094 124.244 247.162Z" fill="#263238"/>
<path d="M205.174 76.2355L207.185 116.54C207.267 118.164 207.017 119.787 206.452 121.312C205.886 122.837 205.017 124.231 203.896 125.409C202.775 126.588 201.426 127.527 199.932 128.168C198.437 128.81 196.827 129.141 195.2 129.142C192.119 129.143 189.156 127.96 186.923 125.838C184.69 123.716 183.359 120.818 183.205 117.742C183.049 114.705 182.925 112.176 182.894 111.866C182.894 111.866 172.526 111.41 171.334 101.295C170.733 96.4031 170.297 86.226 170.048 77.0231C169.908 72.2537 171.57 67.6064 174.704 64.0071C177.838 60.4079 182.213 58.1209 186.958 57.6017L187.933 57.4877C198.528 56.9177 204.925 65.6232 205.174 76.2355Z" fill="#FFBE9D"/>
<path d="M182.832 111.689C187.519 111.27 191.976 109.466 195.636 106.508C195.636 106.508 193.313 114.146 183.101 114.353L182.832 111.689Z" fill="#EB996E"/>
<path d="M205.174 83.832C205.34 83.7388 211.913 81.0028 212.431 87.9775C212.95 94.9522 205.889 94.0402 205.858 93.8433C205.827 93.6464 205.174 83.832 205.174 83.832Z" fill="#FFBE9D"/>
<path d="M207.797 91.0244C207.797 91.0244 207.921 91.0969 208.139 91.1798C208.436 91.2741 208.757 91.2557 209.041 91.128C209.468 90.8078 209.802 90.3801 210.01 89.8885C210.218 89.3969 210.291 88.8591 210.223 88.3298C210.192 87.7317 210.029 87.1477 209.746 86.6198C209.664 86.4071 209.532 86.2176 209.36 86.0677C209.188 85.9178 208.983 85.812 208.761 85.7597C208.619 85.7339 208.472 85.7593 208.347 85.8314C208.221 85.9035 208.126 86.0176 208.077 86.1535C207.994 86.3504 208.077 86.4851 208.014 86.4955C207.952 86.5058 207.859 86.3918 207.89 86.1017C207.916 85.9273 208 85.7667 208.128 85.6457C208.308 85.4869 208.542 85.405 208.782 85.4177C209.073 85.4542 209.35 85.5636 209.587 85.7357C209.825 85.9078 210.015 86.1371 210.14 86.4022C210.475 86.9813 210.67 87.6308 210.71 88.2987C210.792 88.9107 210.69 89.5332 210.417 90.0869C210.143 90.6406 209.711 91.1005 209.176 91.4078C208.994 91.4765 208.799 91.5038 208.605 91.4877C208.411 91.4715 208.224 91.4124 208.056 91.3146C207.817 91.1902 207.776 91.0244 207.797 91.0244Z" fill="#EB996E"/>
<path d="M209.01 83.1687C208.354 83.2062 207.719 83.418 207.173 83.7824C206.626 84.1468 206.186 84.6505 205.899 85.2415C205.557 86.2778 205.578 87.4075 205.246 88.4542C204.915 89.5009 203.981 90.5269 202.903 90.3611C202.529 90.2951 202.181 90.1277 201.896 89.8774C201.611 89.627 201.4 89.3032 201.286 88.9413C201.051 88.2233 200.96 87.4663 201.016 86.7131C201.068 83.4278 201.39 80.1426 201.161 76.878C201.053 73.5713 199.971 70.37 198.051 67.6751C195.978 65.0946 192.66 63.395 189.436 64.0168C187.3 64.4313 185.454 65.7682 183.339 66.3071C182.089 66.609 180.787 66.6241 179.53 66.3513C178.273 66.0785 177.094 65.5248 176.082 64.7319C175.622 64.4421 175.148 64.1757 174.662 63.9339C174.606 63.1618 174.779 62.3904 175.159 61.7161C178.964 57.3219 186.502 55.3839 192.256 56.1715C195.185 56.5607 197.994 57.5816 200.49 59.1635C202.985 60.7454 205.107 62.8504 206.708 65.333C209.704 70.3179 209.818 77.6968 209.051 83.1584" fill="#263238"/>
<path d="M95.7222 243.059C95.7222 243.059 170.587 193.976 173.656 192.95C176.725 191.925 184.128 187.085 191.54 189.126C198.953 191.168 205.589 197.811 208.906 207.511C212.224 217.212 212.483 238.923 212.483 238.923C212.483 238.923 206.615 256.023 195.117 259.651C194.132 259.955 193.132 260.208 192.121 260.407C178.094 263.185 163.817 256.738 155.969 244.789L154.31 242.198C154.31 242.198 105.323 260.179 104.545 259.951L95.7222 243.059Z" fill="#263238"/>
<path d="M70.1967 185.81C70.1967 185.81 61.0006 189.074 61.0006 199.334C60.928 219.025 100.74 240.675 100.74 240.675L153.729 205.584V201.915C153.729 201.915 85.5202 177.374 70.1967 185.81Z" fill="#263238"/>
<path d="M188.347 229.555L187.933 229.731L186.709 230.218L181.961 232.042L164.336 238.685C156.84 241.483 147.872 244.81 137.805 248.468C127.738 252.127 116.572 256.148 104.628 260.179L104.41 260.252L104.307 260.044L98.4593 248.883C97.4225 246.935 96.3858 244.996 95.4734 243.193L95.3594 242.965L95.5667 242.841L152.682 206.568L169.862 195.78L174.517 192.878L175.74 192.132C175.878 192.045 176.02 191.965 176.165 191.893L175.761 192.184L174.579 192.971L169.965 195.956L152.89 206.91L95.8674 243.287L95.9607 242.934L98.9362 248.634L104.784 259.796L104.462 259.671C116.375 255.65 127.541 251.65 137.639 248.023L164.211 238.353L181.909 231.866L186.688 230.125L187.933 229.689C188.068 229.636 188.206 229.591 188.347 229.555Z" fill="#455A64"/>
<path d="M126.887 223.305C126.402 223.035 125.94 222.723 125.508 222.373C124.637 221.741 123.435 220.808 121.89 219.637C118.852 217.295 114.726 213.968 110.289 210.164C105.851 206.361 101.932 202.775 99.1536 200.122C97.7643 198.806 96.655 197.718 95.9085 197.013C95.4972 196.635 95.1159 196.227 94.7681 195.79C95.229 196.093 95.6595 196.44 96.0537 196.826L99.4128 199.842C102.254 202.412 106.204 205.946 110.641 209.75C115.078 213.553 119.153 216.921 122.128 219.336L125.643 222.207C126.092 222.533 126.508 222.901 126.887 223.305Z" fill="#455A64"/>
<path d="M85.1572 193.158C86.8691 192.885 88.6219 193.042 90.2581 193.614C91.9449 194.023 93.5046 194.842 94.7992 195.997C94.7162 196.142 92.7256 194.909 90.113 194.132C87.5003 193.355 85.1572 193.324 85.1572 193.158Z" fill="#455A64"/>
<path d="M89.7193 190.059C90.983 190.492 92.0735 191.321 92.8296 192.422C93.7408 193.407 94.3177 194.655 94.478 195.987C94.3225 196.039 93.7419 194.391 92.4045 192.754C91.0671 191.116 89.6363 190.194 89.7193 190.059Z" fill="#455A64"/>
<path d="M67.2832 252.313C67.2832 252.251 67.9156 252.127 68.6517 252.728C69.5143 253.549 70.0548 254.652 70.1758 255.837C70.3511 256.989 70.1853 258.167 69.6989 259.226C69.3256 260.024 68.9109 260.407 68.8591 260.366C68.8073 260.324 69.0768 259.868 69.3464 259.081C69.6957 258.062 69.7987 256.975 69.647 255.909C69.5243 254.849 69.0875 253.849 68.3925 253.039C68.0663 252.736 67.6912 252.491 67.2832 252.313Z" fill="#263238"/>
</svg>
