<svg width="340" height="426" viewBox="0 0 340 426" fill="none" xmlns="http://www.w3.org/2000/svg">
<path opacity="0.1" fill-rule="evenodd" clip-rule="evenodd" d="M242.605 425.862C229.836 484.767 198.941 544.014 149.456 575.285C100.992 605.912 40.141 603.074 -11.9638 586.735C-56.5431 572.757 -74.3541 518.851 -113.391 492.866C-159.589 462.114 -236.422 475.167 -259.068 422.25C-281.254 370.409 -237.706 310.463 -214.498 256.61C-192.693 206.013 -174.888 147.718 -129.036 120.521C-84.3018 93.9863 -32.5083 120.014 17.6232 118.927C70.4586 117.782 130.321 82.2084 172.29 113.99C214.247 145.763 203.69 215.137 215.841 269.031C227.752 321.858 254.348 371.688 242.605 425.862Z" fill="#37AAE5"/>
<path d="M95.3615 408.29C95.3615 408.29 94.0779 415.51 93.459 422.661C93.2069 425.458 95.3615 427.887 98.1808 428.002C107.716 428.392 128.07 429.171 135.382 428.85C136.482 428.804 137.192 427.681 136.803 426.65C136.459 425.802 135.794 425.091 134.969 424.724L101.321 409.253L95.3615 408.29Z" fill="url(#paint0_linear)"/>
<path d="M94.3071 404.05L95.3386 412.691C95.3386 412.691 101.229 415.441 105.263 412.347L102.811 402.72L94.3071 404.05Z" fill="url(#paint1_linear)"/>
<path d="M95.0865 241.563C94.651 243.809 92.7027 354.197 104.507 403.66C104.69 404.463 104.301 405.288 103.521 405.609C101.711 406.342 98.1579 407.419 93.9175 407.557C92.611 407.603 91.4191 406.755 91.0524 405.471C87.683 393.988 71.5237 336.502 69.415 281.583C67.0541 220.201 69.415 279.497 69.415 279.497L70.7903 241.563H95.0865Z" fill="url(#paint2_linear)"/>
<path d="M56.6477 412.072C56.6477 412.072 54.6077 415.717 52.6594 425.412C52.3156 427.154 53.5304 428.828 55.2953 429.011C58.4355 429.309 63.2719 429.721 67.1684 429.699C68.9563 429.676 70.3545 428.14 70.1252 426.352C69.6897 422.822 68.3603 417 64.2116 412.485L56.6477 412.072Z" fill="url(#paint3_linear)"/>
<path d="M54.8599 400.956L57.2666 414.021C57.2666 414.021 59.6274 415.786 64.3262 414.502L63.1802 400.428L54.8599 400.956Z" fill="url(#paint4_linear)"/>
<path d="M48.3962 244.955C38.7465 303.198 50.4821 388.876 54.4474 405.654C54.6995 406.686 55.5247 407.465 56.5561 407.648C58.321 407.946 61.232 408.175 64.0971 407.35C65.0827 407.052 65.7704 406.181 65.8162 405.15C66.3434 391.581 65.3807 308.332 74.3886 275.44C74.8471 273.767 75.8556 272.323 77.2767 271.314L94.7196 258.914L96.049 238.858L48.3962 244.955Z" fill="url(#paint5_linear)"/>
<path d="M109.87 134.613C80.9442 134.132 49.0381 142.2 49.0381 142.2C40.4198 192.489 47.5253 250.502 47.5253 250.502C69.9192 256.37 95.1552 246.904 95.1552 246.904C98.8684 225.885 116.243 166.726 116.243 166.726C130.362 164.961 142.006 160.904 151.587 155.517C144.275 147.037 140.837 136.264 139.324 129.892C129.147 133.055 118.787 134.751 109.87 134.613Z" fill="url(#paint6_linear)"/>
<path d="M195.297 92.0036C192.455 88.5654 188.856 90.1928 188.856 90.1928C184.593 108.163 162.291 122.741 139.37 129.869C140.859 136.241 144.321 147.037 151.632 155.495C189.658 134.132 195.297 92.0036 195.297 92.0036Z" fill="url(#paint7_linear)"/>
<path d="M194.609 92.8975C194.907 93.8373 191.469 95.2813 189.429 91.4077C189.361 89.5511 188.237 81.6204 189.338 80.1076C195.228 72.0623 206.666 62 206.666 62C208.591 63.9024 207.009 65.782 207.009 65.782L201.463 71.5581C202.632 73.6439 204.03 75.4317 204.694 77.953C205.199 79.8784 204.901 81.9184 203.915 83.6604C202.952 85.4024 201.623 87.6945 200.362 89.4823C197.979 92.8517 194.609 92.8975 194.609 92.8975Z" fill="url(#paint8_linear)"/>
<path d="M199.033 75.2942L193.99 79.5804L192.409 83.8437L196.924 88.8405C196.924 88.8405 198.437 80.3826 199.56 78.5489C200.66 76.7153 200.087 75.8443 199.033 75.2942Z" fill="url(#paint9_linear)"/>
<path d="M60.1317 170.21L49.0379 142.201C49.0379 142.201 22.037 160.56 17.5903 183.825C22.7017 184.192 31.9847 185.521 41.0614 190.128C43.0785 179.126 60.1317 170.21 60.1317 170.21Z" fill="url(#paint10_linear)"/>
<path d="M83.7407 196.546C83.7407 196.546 53.4161 213.691 43.1934 199.044C41.0617 195.996 40.5575 192.993 41.0847 190.105C31.985 185.521 22.702 184.192 17.6135 183.802C16.2841 190.816 16.9718 198.288 21.0975 205.806C39.0218 238.583 87.7747 203.995 87.7747 203.995L83.7407 196.546Z" fill="url(#paint11_linear)"/>
<path d="M80.0959 218.23L96.6449 160.423C96.8282 159.758 97.4013 159.277 98.066 159.208C101.069 158.864 109.756 157.878 119.795 157.03C131.874 155.999 145.902 155.174 154.291 155.884C155.483 155.976 156.194 157.237 155.666 158.314C150.899 167.964 131.278 207.205 121.468 220.063C121.147 220.499 120.643 220.728 120.093 220.728L81.7004 220.361C80.6001 220.384 79.7979 219.307 80.0959 218.23Z" fill="url(#paint12_linear)"/>
<path d="M121.514 152.033L133.525 150.039C134.167 149.925 134.694 150.544 134.488 151.162L133.296 154.761C133.181 155.082 132.929 155.311 132.585 155.334L121.033 156.87C120.437 156.939 119.933 156.411 120.07 155.815L120.804 152.675C120.895 152.331 121.17 152.079 121.514 152.033Z" fill="#91B3FA"/>
<path d="M112.529 162.188L113.515 157.031C113.606 156.503 114.042 156.114 114.569 156.068L138.797 153.615C139.622 153.524 140.264 154.28 140.08 155.082L138.544 161.5C138.43 162.004 137.971 162.394 137.444 162.417L113.767 163.609C112.988 163.632 112.392 162.944 112.529 162.188Z" fill="#91B3FA"/>
<path d="M84.1071 204.271C84.1071 204.271 81.792 194.781 82.7318 191.435C83.6716 188.065 85.4594 183.756 91.4647 184.719C97.47 185.682 104.553 188.203 104.553 188.203C104.553 188.203 104.186 192.581 99.6246 191.16L102.444 193.36C102.444 193.36 102.031 196.867 98.1806 194.988L100.816 197.899C100.816 197.899 99.1662 200.787 96.324 198.93C93.5047 197.073 92.1523 205.417 84.1071 204.271Z" fill="url(#paint13_linear)"/>
<path d="M80.5777 111.143L71.3863 137.754C71.2259 138.189 71.4092 138.694 71.8218 138.9C74.3202 140.275 83.374 144.286 94.2615 137.387C95.3847 136.677 96.164 135.485 96.3473 134.155L99.3271 111.12H80.5777V111.143Z" fill="url(#paint14_linear)"/>
<path d="M100.61 86.5025C100.61 86.5025 110.718 105.527 109.412 113.205C108.105 120.884 95.5904 120.334 84.6571 114.099L77.0244 93.5622L100.61 86.5025Z" fill="url(#paint15_linear)"/>
<path d="M85.1386 103.991C85.5741 103.785 85.7574 103.258 85.4824 102.845C84.6801 101.607 83.1445 99.0861 82.6631 96.8857C82.6631 96.8857 80.8524 95.7167 87.2931 94.181C93.7339 92.6453 103.338 90.2386 105.355 84.7605C107.326 79.4199 102.146 65.9882 93.8944 76.6923C93.5735 77.1049 92.9546 77.1049 92.6566 76.6923C91.3043 74.9274 87.7515 71.283 82.8235 73.4834C78.1935 75.5463 77.6893 78.9386 77.758 80.6577C77.781 81.1619 77.3225 81.5516 76.8412 81.4599C74.5033 81.0244 68.9106 80.6347 66.2747 86.3879C64.1201 91.1326 65.5182 93.8143 66.8018 95.1208C67.2144 95.5563 67.031 96.2439 66.458 96.4273C64.9223 96.8857 62.9511 98.1922 63.1345 101.791C63.4095 106.765 68.9564 106.329 70.5379 106.1C70.7901 106.054 71.0651 106.146 71.2256 106.352C72.5779 107.865 78.6978 114.237 85.3219 114.993C85.895 115.062 86.3305 114.489 86.1471 113.939L83.282 105.619C83.1444 105.229 83.3278 104.816 83.7175 104.633L85.1386 103.991Z" fill="url(#paint16_linear)"/>
<path d="M86.2846 105.183C86.2846 105.183 79.0875 100.255 78.5604 104.404C78.0332 108.553 85.0469 110.432 88.508 108.873L86.2846 105.183Z" fill="url(#paint17_linear)"/>
<defs>
<linearGradient id="paint0_linear" x1="134.317" y1="398.308" x2="11.0744" y2="532.363" gradientUnits="userSpaceOnUse">
<stop stop-color="#09005D"/>
<stop offset="1" stop-color="#1A0F91"/>
</linearGradient>
<linearGradient id="paint1_linear" x1="94.3138" y1="408.264" x2="105.261" y2="408.264" gradientUnits="userSpaceOnUse">
<stop stop-color="#FEBBBA"/>
<stop offset="1" stop-color="#FF928E"/>
</linearGradient>
<linearGradient id="paint2_linear" x1="68.3557" y1="324.56" x2="104.552" y2="324.56" gradientUnits="userSpaceOnUse">
<stop stop-color="#09005D"/>
<stop offset="1" stop-color="#1A0F91"/>
</linearGradient>
<linearGradient id="paint3_linear" x1="106.669" y1="372.89" x2="-16.576" y2="506.945" gradientUnits="userSpaceOnUse">
<stop stop-color="#09005D"/>
<stop offset="1" stop-color="#1A0F91"/>
</linearGradient>
<linearGradient id="paint4_linear" x1="54.8603" y1="407.703" x2="64.3122" y2="407.703" gradientUnits="userSpaceOnUse">
<stop stop-color="#FEBBBA"/>
<stop offset="1" stop-color="#FF928E"/>
</linearGradient>
<linearGradient id="paint5_linear" x1="44.6728" y1="323.375" x2="96.0603" y2="323.375" gradientUnits="userSpaceOnUse">
<stop stop-color="#09005D"/>
<stop offset="1" stop-color="#1A0F91"/>
</linearGradient>
<linearGradient id="paint6_linear" x1="193.993" y1="22.3403" x2="141.11" y2="97.0664" gradientUnits="userSpaceOnUse">
<stop stop-color="#FF928E"/>
<stop offset="1" stop-color="#FE7062"/>
</linearGradient>
<linearGradient id="paint7_linear" x1="139.361" y1="122.668" x2="195.288" y2="122.668" gradientUnits="userSpaceOnUse">
<stop stop-color="#FEBBBA"/>
<stop offset="1" stop-color="#FF928E"/>
</linearGradient>
<linearGradient id="paint8_linear" x1="182.829" y1="113.294" x2="145.301" y2="198.679" gradientUnits="userSpaceOnUse">
<stop stop-color="#FEBBBA"/>
<stop offset="1" stop-color="#FF928E"/>
</linearGradient>
<linearGradient id="paint9_linear" x1="195.019" y1="84.857" x2="210.678" y2="60.7817" gradientUnits="userSpaceOnUse">
<stop stop-color="#FEBBBA"/>
<stop offset="1" stop-color="#FF928E"/>
</linearGradient>
<linearGradient id="paint10_linear" x1="161.943" y1="-0.340536" x2="109.06" y2="74.3854" gradientUnits="userSpaceOnUse">
<stop stop-color="#FF928E"/>
<stop offset="1" stop-color="#FE7062"/>
</linearGradient>
<linearGradient id="paint11_linear" x1="16.9816" y1="201.887" x2="87.7576" y2="201.887" gradientUnits="userSpaceOnUse">
<stop stop-color="#FEBBBA"/>
<stop offset="1" stop-color="#FF928E"/>
</linearGradient>
<linearGradient id="paint12_linear" x1="93.8375" y1="217.817" x2="154.298" y2="111.736" gradientUnits="userSpaceOnUse">
<stop stop-color="#4F52FF"/>
<stop offset="1" stop-color="#4042E2"/>
</linearGradient>
<linearGradient id="paint13_linear" x1="82.5025" y1="194.466" x2="104.552" y2="194.466" gradientUnits="userSpaceOnUse">
<stop stop-color="#FEBBBA"/>
<stop offset="1" stop-color="#FF928E"/>
</linearGradient>
<linearGradient id="paint14_linear" x1="71.3278" y1="126.223" x2="99.3104" y2="126.223" gradientUnits="userSpaceOnUse">
<stop stop-color="#FEBBBA"/>
<stop offset="1" stop-color="#FF928E"/>
</linearGradient>
<linearGradient id="paint15_linear" x1="105.965" y1="108.421" x2="75.1983" y2="89.6556" gradientUnits="userSpaceOnUse">
<stop stop-color="#FEBBBA"/>
<stop offset="1" stop-color="#FF928E"/>
</linearGradient>
<linearGradient id="paint16_linear" x1="58.9125" y1="69.8749" x2="98.6597" y2="101.268" gradientUnits="userSpaceOnUse">
<stop stop-color="#09005D"/>
<stop offset="1" stop-color="#1A0F91"/>
</linearGradient>
<linearGradient id="paint17_linear" x1="97.8841" y1="115.42" x2="70.2024" y2="98.5361" gradientUnits="userSpaceOnUse">
<stop stop-color="#FEBBBA"/>
<stop offset="1" stop-color="#FF928E"/>
</linearGradient>
</defs>
</svg>
