<svg width="486" height="483" viewBox="0 0 486 483" fill="none" xmlns="http://www.w3.org/2000/svg">
<path opacity="0.2" d="M343.709 80.2327C426.197 127.642 446.043 239.497 413.464 329.006C389.845 393.898 302.574 375.654 233.877 381.987C171.107 387.774 96.3076 415.431 64.121 361.212C23.0914 292.097 36.4114 201.905 93.1332 144.9C160.442 77.2562 261.052 32.7268 343.709 80.2327Z" fill="#37AAE5"/>
<rect x="173.384" y="89.2377" width="137.555" height="275.691" rx="20" fill="white"/>
<path d="M170.586 143.988H167.06V165.464H170.586V143.988Z" fill="#1A1A1A"/>
<path d="M319.5 150.893H315.974V184.724H319.5V150.893Z" fill="#1A1A1A"/>
<path d="M170.586 143.988H167.06V165.464H170.586V143.988Z" fill="#1A1A1A"/>
<path d="M170.526 170.708H167V192.184H170.526V170.708Z" fill="#1A1A1A"/>
<path d="M296.443 86.3357H190.049C184.404 86.3357 178.99 88.4502 174.998 92.214C171.006 95.9779 168.763 101.083 168.763 106.406V349.809C168.763 355.132 171.006 360.237 174.998 364.001C178.99 367.764 184.404 369.879 190.049 369.879H296.443C302.083 369.871 307.49 367.754 311.475 363.991C315.461 360.228 317.699 355.127 317.699 349.809V106.406C317.699 101.088 315.461 95.9871 311.475 92.2241C307.49 88.461 302.083 86.3432 296.443 86.3357V86.3357ZM308.499 349.305C308.499 352.716 307.062 355.987 304.505 358.4C301.947 360.812 298.479 362.169 294.861 362.171H191.632C189.84 362.171 188.066 361.838 186.411 361.191C184.756 360.545 183.252 359.597 181.985 358.402C180.719 357.207 179.714 355.789 179.029 354.228C178.345 352.667 177.993 350.994 177.994 349.305V106.676C177.994 103.265 179.43 99.9944 181.988 97.5829C184.546 95.1714 188.015 93.8166 191.632 93.8166H294.861C298.478 93.8166 301.947 95.1714 304.504 97.5829C307.062 99.9944 308.499 103.265 308.499 106.676V349.305Z" fill="#333333"/>
<path d="M296.398 89.1774H190.094C185.533 89.1774 181.158 90.8838 177.93 93.922C174.702 96.9602 172.885 101.082 172.877 105.382V350.832C172.877 355.137 174.691 359.266 177.92 362.311C181.149 365.355 185.528 367.066 190.094 367.066H296.398C300.964 367.066 305.343 365.355 308.572 362.311C311.801 359.266 313.615 355.137 313.615 350.832V105.382C313.607 101.082 311.789 96.9602 308.561 93.922C305.333 90.8838 300.959 89.1774 296.398 89.1774ZM308.506 349.305C308.506 352.716 307.07 355.987 304.512 358.4C301.955 360.812 298.486 362.169 294.868 362.171H191.639C189.847 362.171 188.073 361.838 186.418 361.191C184.763 360.544 183.259 359.597 181.993 358.402C180.726 357.207 179.722 355.789 179.037 354.228C178.352 352.667 178 350.994 178.001 349.305V106.675C178.001 103.265 179.438 99.9944 181.995 97.5828C184.553 95.1713 188.022 93.8165 191.639 93.8165H294.868C298.485 93.8165 301.954 95.1713 304.512 97.5828C307.069 99.9944 308.506 103.265 308.506 106.675V349.305Z" fill="#1A1A1A"/>
<path d="M210.251 89.1774H276.558C277.332 89.1774 278.073 89.467 278.62 89.9826C279.167 90.4983 279.474 91.1976 279.474 91.9268V96.1894C279.468 98.4963 278.491 100.707 276.757 102.335C275.024 103.962 272.675 104.875 270.229 104.871H216.565C214.117 104.871 211.769 103.954 210.038 102.322C208.307 100.69 207.334 98.4762 207.334 96.1681V91.9055C207.342 91.1805 207.653 90.4878 208.199 89.9772C208.744 89.4665 209.482 89.1792 210.251 89.1774Z" fill="#1A1A1A"/>
<path d="M245.635 97.3546H230.678C230.166 97.3546 229.751 97.7458 229.751 98.2285V98.5268C229.751 99.0094 230.166 99.4007 230.678 99.4007H245.635C246.147 99.4007 246.561 99.0094 246.561 98.5268V98.2285C246.561 97.7458 246.147 97.3546 245.635 97.3546Z" fill="#333333"/>
<path d="M257.043 98.3704C257.044 98.8694 256.888 99.3574 256.595 99.7725C256.301 100.188 255.883 100.511 255.394 100.702C254.905 100.892 254.367 100.941 253.848 100.843C253.33 100.744 252.854 100.502 252.481 100.148C252.109 99.7938 251.856 99.3431 251.756 98.8532C251.656 98.3632 251.713 97.8563 251.919 97.3969C252.125 96.9375 252.472 96.5463 252.915 96.273C253.357 95.9998 253.876 95.857 254.406 95.8626C255.107 95.8682 255.778 96.1349 256.272 96.6046C256.766 97.0743 257.043 97.709 257.043 98.3704Z" fill="#333333"/>
<path d="M278.66 225.436C278.708 225.218 278.755 225.001 278.804 224.8C279.259 222.928 279.715 221.054 280.171 219.178C280.364 218.373 280.553 217.566 280.744 216.761C280.851 216.311 280.993 216.187 281.457 216.187C283.216 216.187 284.977 216.187 286.738 216.187C287.257 216.187 287.354 216.319 287.199 216.818C286.622 218.658 286.038 220.495 285.461 222.335C284.781 224.511 284.113 226.687 283.42 228.845C282.905 230.451 282.424 232.074 281.804 233.632C281.012 235.625 279.658 237.1 277.54 237.689C277.024 237.832 276.495 237.923 275.961 237.959C274.673 238.046 273.398 238.014 272.158 237.598C271.456 237.393 270.8 237.05 270.227 236.591C269.864 236.28 269.825 236.156 270.023 235.72C270.499 234.715 270.991 233.717 271.486 232.72C271.617 232.457 271.733 232.452 272.036 232.596C272.587 232.857 273.132 233.133 273.701 233.349C274.225 233.532 274.787 233.57 275.33 233.458C275.669 233.41 275.991 233.276 276.265 233.069C276.539 232.861 276.757 232.586 276.899 232.27C277.012 232.026 277.09 231.765 277.19 231.515C277.291 231.265 277.208 231.177 276.961 231.18C276.499 231.18 276.036 231.18 275.572 231.18C274.476 231.18 274.568 231.267 274.216 230.181C273.432 227.76 272.645 225.34 271.856 222.921C271.199 220.904 270.541 218.888 269.881 216.87C269.826 216.745 269.803 216.608 269.817 216.472C269.86 216.355 269.946 216.259 270.057 216.204C270.158 216.175 270.263 216.169 270.366 216.187H275.647C276.186 216.187 276.334 216.326 276.463 216.866C277.035 219.224 277.607 221.581 278.18 223.937C278.268 224.302 278.347 224.67 278.439 225.035C278.474 225.172 278.527 225.305 278.575 225.44L278.66 225.436Z" fill="#37AAE5"/>
<path d="M227.616 231.069C226.929 231.58 226.273 232.022 225.507 232.255C223.515 232.862 221.595 232.781 219.798 231.626C218.725 230.929 218.082 229.885 217.717 228.669C217.469 227.8 217.351 226.899 217.367 225.995C217.367 223.029 217.367 220.064 217.367 217.096C217.359 216.961 217.359 216.825 217.367 216.689C217.365 216.621 217.378 216.552 217.405 216.489C217.431 216.426 217.47 216.369 217.52 216.322C217.57 216.276 217.629 216.24 217.693 216.218C217.757 216.196 217.825 216.189 217.893 216.195C219.534 216.195 221.176 216.195 222.828 216.195C222.941 216.189 223.052 216.225 223.138 216.299C223.225 216.372 223.281 216.476 223.294 216.589C223.32 216.739 223.329 216.89 223.32 217.042C223.32 219.794 223.32 222.549 223.32 225.31C223.308 225.656 223.36 226.002 223.472 226.33C223.615 226.652 223.866 226.911 224.181 227.062C224.496 227.214 224.853 227.246 225.189 227.155C225.678 227.066 226.118 226.797 226.423 226.4C226.522 226.237 226.57 226.049 226.562 225.858C226.571 222.957 226.571 220.051 226.562 217.14C226.562 216.232 226.592 216.204 227.494 216.204C228.924 216.204 230.355 216.204 231.786 216.204C232.35 216.204 232.468 216.324 232.468 216.892C232.468 221.765 232.468 226.638 232.468 231.51C232.468 232.115 232.395 232.185 231.794 232.185C230.721 232.185 229.648 232.185 228.575 232.185C228.421 232.208 228.264 232.171 228.136 232.081C228.008 231.991 227.919 231.854 227.886 231.7C227.808 231.485 227.718 231.274 227.616 231.069Z" fill="#37AAE5"/>
<path d="M269.45 220.542C268.863 218.86 267.67 217.466 266.111 216.639C264.908 216.023 263.568 215.733 262.222 215.797C260.904 215.828 259.622 216.238 258.525 216.979C257.975 217.338 257.96 217.353 257.701 216.733C257.648 216.56 257.537 216.412 257.388 216.313C257.239 216.214 257.06 216.171 256.883 216.191C255.868 216.217 254.853 216.191 253.838 216.191C253.23 216.191 253.089 216.326 253.089 216.929C253.089 223.586 253.089 230.244 253.089 236.902C253.089 237.5 253.196 237.602 253.803 237.602C255.119 237.602 256.432 237.602 257.746 237.602C258.014 237.602 258.282 237.602 258.55 237.602C258.868 237.583 258.969 237.483 258.999 237.167C259.01 237.03 258.999 236.895 258.999 236.758V231.58C259.128 231.652 259.188 231.691 259.248 231.717C259.699 231.946 260.161 232.151 260.632 232.333C261.59 232.63 262.602 232.7 263.591 232.537C265.628 232.27 267.295 231.354 268.497 229.652C269.395 228.36 269.926 226.841 270.031 225.264C270.195 223.666 269.996 222.051 269.45 220.542ZM263.001 226.865C262.732 227.144 262.402 227.354 262.038 227.479C261.674 227.604 261.286 227.639 260.905 227.583C260.525 227.526 260.163 227.379 259.849 227.154C259.535 226.929 259.278 226.631 259.1 226.286C258.703 225.489 258.549 224.59 258.658 223.704C258.698 223.053 258.9 222.424 259.246 221.874C259.472 221.517 259.786 221.226 260.157 221.03C260.528 220.834 260.943 220.739 261.361 220.756C261.78 220.772 262.186 220.899 262.541 221.124C262.896 221.349 263.187 221.663 263.385 222.037C263.755 222.743 263.937 223.534 263.911 224.333C263.887 225.198 263.722 226.136 263.001 226.865Z" fill="#37AAE5"/>
<path d="M209.661 232.505C210.726 232.365 211.746 231.984 212.646 231.391C212.702 231.354 212.758 231.317 212.814 231.276C213.434 230.824 213.976 230.271 214.417 229.639C215.306 228.343 215.832 226.826 215.936 225.251C216.101 223.654 215.905 222.04 215.361 220.532C214.776 218.845 213.583 217.446 212.022 216.616C210.818 216.004 209.478 215.718 208.133 215.787C206.815 215.818 205.533 216.228 204.436 216.968C203.889 217.327 203.878 217.347 203.612 216.722C203.56 216.549 203.45 216.399 203.3 216.3C203.151 216.201 202.971 216.159 202.794 216.18C201.779 216.206 200.764 216.18 199.749 216.18C199.142 216.191 199 216.324 199 216.927V236.9C199 237.498 199.107 237.6 199.717 237.6H203.657C203.925 237.6 204.193 237.6 204.464 237.6C204.783 237.581 204.893 237.479 204.91 237.165C204.921 237.028 204.91 236.891 204.91 236.756V231.569C205.037 231.641 205.097 231.68 205.159 231.706C205.609 231.937 206.071 232.142 206.543 232.322C207.446 232.6 208.398 232.675 209.333 232.54L209.661 232.505ZM207.477 227.59C206.984 227.651 206.485 227.559 206.045 227.326C205.606 227.093 205.246 226.729 205.015 226.284C204.617 225.484 204.465 224.582 204.58 223.693C204.618 223.042 204.818 222.412 205.161 221.861C205.387 221.504 205.702 221.213 206.073 221.017C206.444 220.821 206.859 220.726 207.277 220.742C207.696 220.758 208.102 220.885 208.458 221.11C208.813 221.334 209.104 221.649 209.303 222.022C209.67 222.729 209.85 223.521 209.824 224.32C209.803 225.19 209.633 226.123 208.919 226.865C208.886 226.902 208.849 226.935 208.809 226.963C208.739 227.032 208.663 227.094 208.582 227.148C208.347 227.322 208.081 227.447 207.798 227.518" fill="#37AAE5"/>
<path d="M251.186 221.602C250.503 218.774 248.857 216.816 246.023 216.056C244.286 215.55 242.426 215.709 240.797 216.502C240.321 216.737 239.872 217.035 239.387 217.318C239.291 217.101 239.19 216.866 239.089 216.631C239.039 216.49 238.943 216.37 238.818 216.291C238.693 216.213 238.545 216.179 238.398 216.195C237.353 216.219 236.31 216.195 235.265 216.195C234.638 216.195 234.529 216.38 234.529 216.933C234.54 223.586 234.54 230.242 234.529 236.9C234.529 237.552 234.591 237.607 235.216 237.607C236.737 237.607 238.258 237.591 239.778 237.607C240.297 237.607 240.454 237.389 240.445 236.904C240.428 235.316 240.445 233.725 240.445 232.137V231.569C240.66 231.695 240.78 231.767 240.907 231.839C241.518 232.185 242.186 232.416 242.879 232.522C243.913 232.669 244.967 232.612 245.98 232.352C247.056 232.096 248.052 231.573 248.879 230.829C250.853 229.052 251.491 226.695 251.51 224.148C251.503 223.289 251.394 222.434 251.186 221.602ZM244.924 226.165C244.495 227.048 243.789 227.559 242.814 227.609C241.808 227.657 240.99 227.222 240.546 226.304C239.829 224.818 239.814 223.293 240.701 221.863C241.643 220.34 243.857 220.34 244.814 222.055C245.184 222.715 245.351 223.473 245.293 224.23C245.341 224.897 245.214 225.564 244.924 226.165Z" fill="#37AAE6"/>
<path d="M212.814 231.276C212.561 230.698 212.253 230.146 211.895 229.629C210.919 228.199 209.73 227.211 208.809 226.965C208.65 226.907 208.48 226.885 208.311 226.901C208.143 226.918 207.98 226.973 207.835 227.061C207.659 227.191 207.533 227.377 207.477 227.59C207.586 227.576 207.694 227.552 207.798 227.518C207.851 227.42 207.924 227.335 208.013 227.27C208.179 227.159 208.379 227.114 208.575 227.144C209.434 227.224 210.687 228.232 211.726 229.739C212.081 230.257 212.387 230.808 212.64 231.384C213.183 232.659 213.251 233.749 212.721 234.124C212.599 234.211 212.454 234.259 212.305 234.263C211.99 234.252 211.683 234.161 211.412 233.997C210.747 233.61 210.156 233.104 209.668 232.505L209.515 232.522C209.464 232.522 209.408 232.537 209.354 232.542C209.905 233.244 210.587 233.829 211.361 234.263C211.635 234.414 211.938 234.506 212.249 234.53C212.465 234.55 212.681 234.494 212.861 234.372C213.481 233.941 213.425 232.696 212.814 231.276Z" fill="#FCEF0A"/>
<path d="M213.009 232.879L212.365 232.766C212.27 232.747 212.172 232.748 212.077 232.768C211.982 232.788 211.892 232.827 211.812 232.883C211.732 232.939 211.664 233.011 211.611 233.094C211.559 233.177 211.523 233.269 211.507 233.366L211.054 236.047L214.078 240.398C214.19 240.558 214.36 240.665 214.551 240.698C214.742 240.731 214.937 240.685 215.095 240.572L217.844 238.614C217.923 238.558 217.99 238.487 218.041 238.405C218.093 238.322 218.128 238.231 218.144 238.135C218.16 238.038 218.158 237.94 218.136 237.845C218.115 237.75 218.076 237.66 218.02 237.581L214.996 233.229L213.342 232.938C213.381 233.241 213.36 233.55 213.282 233.845C213.421 233.897 213.541 233.992 213.624 234.117C213.707 234.242 213.749 234.391 213.743 234.541C213.745 234.69 213.703 234.835 213.623 234.96C213.544 235.085 213.43 235.184 213.296 235.243C213.162 235.303 213.014 235.322 212.869 235.297C212.725 235.272 212.591 235.205 212.483 235.104C212.376 235.003 212.301 234.872 212.266 234.727C212.232 234.583 212.24 234.431 212.289 234.292C212.339 234.152 212.428 234.03 212.545 233.941C212.662 233.852 212.803 233.8 212.949 233.791C213.042 233.496 213.066 233.184 213.02 232.879H213.009Z" fill="#FCEF0A"/>
</svg>
