<svg width="29" height="30" viewBox="0 0 29 30" fill="none" xmlns="http://www.w3.org/2000/svg">
<path d="M14.5 0C10.5582 0 10.067 0.01969 8.52435 0.0871984C6.97537 0.165958 5.92762 0.414427 5.00313 0.785723C4.03555 1.1636 3.15928 1.75523 2.4354 2.51938C1.69467 3.26647 1.12244 4.17346 0.759533 5.17565C0.400613 6.13202 0.160426 7.2159 0.0842918 8.81829C0.0145018 10.4151 0 10.9223 0 15C0 19.0777 0.0190336 19.5859 0.0842918 21.1817C0.160426 22.7794 0.400613 23.868 0.759533 24.8244C1.12482 25.8253 1.69673 26.7318 2.4354 27.4806C3.15759 28.2469 4.03434 28.8389 5.00313 29.2143C5.92762 29.5809 6.9799 29.834 8.52435 29.9128C10.0679 29.985 10.5582 30 14.5 30C18.4418 30 18.933 29.9803 20.4757 29.9128C22.0201 29.834 23.0724 29.5799 23.9969 29.2143C24.9645 28.8364 25.8407 28.2448 26.5646 27.4806C27.3063 26.7343 27.8787 25.8271 28.2405 24.8244C28.5949 23.868 28.8396 22.7794 28.9157 21.1817C28.9855 19.5849 29 19.0777 29 15C29 10.9223 28.981 10.4141 28.9157 8.81829C28.8396 7.22059 28.594 6.12639 28.2405 5.17565C27.8752 4.17471 27.3033 3.26822 26.5646 2.51938C25.8432 1.75212 24.9662 1.16 23.9969 0.785723C23.0724 0.414427 22.0201 0.165958 20.4757 0.0871984C18.9321 0.0150019 18.4418 0 14.5 0ZM14.5 2.70034C18.3711 2.70034 18.8333 2.72003 20.3633 2.78754C21.7745 2.85598 22.5431 3.09976 23.0534 3.30604C23.6842 3.54693 24.2552 3.93035 24.7247 4.42837C25.2053 4.91201 25.5745 5.50133 25.8051 6.15264C26.0045 6.68052 26.2401 7.47562 26.3063 8.93549C26.3715 10.5182 26.3906 10.9973 26.3906 15.0009C26.3906 19.0046 26.3715 19.4837 26.3009 21.0664C26.2247 22.5263 25.9891 23.3214 25.7906 23.8492C25.5159 24.5534 25.2096 25.0456 24.7038 25.5782C24.2327 26.0731 23.6621 26.4547 23.0325 26.6958C22.5286 26.9021 21.7491 27.1459 20.3324 27.2143C18.7943 27.2818 18.3412 27.3015 14.4601 27.3015C10.5791 27.3015 10.1268 27.2818 8.58689 27.2087C7.17568 27.13 6.39711 26.8862 5.88683 26.6808C5.19799 26.3967 4.72578 26.0798 4.22003 25.5566C3.70975 25.0288 3.38527 24.5262 3.13511 23.8277C2.93209 23.3064 2.70006 22.5 2.62483 21.0345C2.57317 19.4621 2.54869 18.9746 2.54869 14.9784C2.54869 10.9842 2.57317 10.4957 2.62483 8.90361C2.70006 7.43812 2.93209 6.63364 3.13511 6.11045C3.38527 5.39692 3.71065 4.90936 4.22003 4.38148C4.72487 3.85923 5.19799 3.52169 5.88683 3.25728C6.39711 3.05194 7.15665 2.80816 8.57329 2.73503C10.1114 2.67783 10.5646 2.65721 14.4402 2.65721L14.5 2.70034ZM14.5 7.30123C13.5223 7.30086 12.5542 7.49979 11.6509 7.88665C10.7476 8.27351 9.92684 8.84072 9.23553 9.55587C8.54422 10.271 7.99592 11.1201 7.62195 12.0545C7.24798 12.989 7.05568 13.9905 7.05604 15.0019C7.05568 16.0132 7.24798 17.0148 7.62195 17.9492C7.99592 18.8837 8.54422 19.7327 9.23553 20.4479C9.92684 21.163 10.7476 21.7302 11.6509 22.1171C12.5542 22.504 13.5223 22.7029 14.5 22.7025C15.4777 22.7029 16.4458 22.504 17.3491 22.1171C18.2524 21.7302 19.0732 21.163 19.7645 20.4479C20.4558 19.7327 21.0041 18.8837 21.3781 17.9492C21.752 17.0148 21.9443 16.0132 21.944 15.0019C21.9443 13.9905 21.752 12.989 21.3781 12.0545C21.0041 11.1201 20.4558 10.271 19.7645 9.55587C19.0732 8.84072 18.2524 8.27351 17.3491 7.88665C16.4458 7.49979 15.4777 7.30086 14.5 7.30123ZM14.5 20.0022C11.828 20.0022 9.66637 17.766 9.66637 15.0019C9.66637 12.2378 11.828 10.0016 14.5 10.0016C17.172 10.0016 19.3336 12.2378 19.3336 15.0019C19.3336 17.766 17.172 20.0022 14.5 20.0022ZM23.9842 6.99369C23.9837 7.47156 23.7999 7.92968 23.4731 8.26742C23.1462 8.60514 22.7032 8.79485 22.2413 8.79485C22.0128 8.79485 21.7867 8.74831 21.5756 8.65789C21.3646 8.56746 21.1729 8.43493 21.0114 8.26785C20.8499 8.10077 20.7217 7.90242 20.6343 7.68412C20.5469 7.46582 20.5019 7.23185 20.5019 6.99556C20.5019 6.75928 20.5469 6.5253 20.6343 6.307C20.7217 6.08871 20.8499 5.89035 21.0114 5.72327C21.1729 5.55619 21.3646 5.42366 21.5756 5.33324C21.7867 5.24281 22.0128 5.19627 22.2413 5.19627C23.1993 5.19627 23.9842 6.00263 23.9842 6.99369Z" fill="#36AAE7"/>
</svg>
