<svg width="255" height="72" viewBox="0 0 255 72" fill="none" xmlns="http://www.w3.org/2000/svg">
<path d="M229.936 27.913C230.072 27.285 230.208 26.6569 230.351 26.0792C231.664 20.6741 232.979 15.2648 234.297 9.85137C234.854 7.52773 235.399 5.1978 235.951 2.87416C236.26 1.57418 236.669 1.21621 238.007 1.21621C243.086 1.21621 248.168 1.21621 253.251 1.21621C254.75 1.21621 255.029 1.5993 254.583 3.03745C252.917 8.35042 251.232 13.6508 249.565 18.9638C247.602 25.2439 245.675 31.524 243.675 37.7539C242.188 42.3886 240.801 47.0736 239.01 51.5702C236.725 57.3227 232.816 61.5807 226.703 63.2826C225.212 63.6953 223.685 63.9561 222.144 64.0613C218.427 64.3125 214.748 64.2183 211.167 63.0188C209.141 62.4259 207.247 61.4382 205.593 60.1111C204.546 59.2131 204.434 58.8551 205.004 57.5991C206.379 54.6977 207.798 51.8151 209.229 48.9388C209.606 48.1789 209.941 48.1663 210.814 48.5808C212.406 49.3344 213.98 50.132 215.621 50.7537C217.132 51.2822 218.756 51.3907 220.323 51.0678C221.302 50.9308 222.23 50.5444 223.022 49.9447C223.814 49.3451 224.443 48.5518 224.85 47.6388C225.179 46.9354 225.402 46.1818 225.693 45.4596C225.984 44.7374 225.742 44.4862 225.03 44.4925C223.698 44.4925 222.36 44.4925 221.022 44.4925C217.857 44.4925 218.124 44.7437 217.108 41.6099C214.845 34.6222 212.574 27.6366 210.294 20.6532C208.399 14.8336 206.499 9.01193 204.595 3.18817C204.435 2.82836 204.371 2.4319 204.41 2.03891C204.536 1.70136 204.784 1.42515 205.103 1.26645C205.393 1.18219 205.698 1.16502 205.995 1.21621H221.239C222.794 1.21621 223.221 1.61814 223.593 3.17561C225.245 9.98325 226.897 16.7867 228.548 23.586C228.802 24.641 229.032 25.7024 229.298 26.7574C229.397 27.1531 229.552 27.5362 229.688 27.9255L229.936 27.913Z" fill="#37AAE5"/>
<path d="M82.6003 44.1722C80.6182 45.648 78.7228 46.9229 76.5114 47.5948C70.7632 49.347 65.2194 49.1146 60.0348 45.7799C56.9377 43.7703 55.0794 40.7558 54.0264 37.2452C53.3121 34.7379 52.9718 32.1364 53.0167 29.527C53.0167 20.9672 53.0167 12.4074 53.0167 3.8413C52.9951 3.45015 52.9951 3.05807 53.0167 2.66692C53.0123 2.46868 53.0494 2.27174 53.1256 2.08913C53.2018 1.90652 53.3154 1.7424 53.4589 1.60764C53.6024 1.47287 53.7724 1.37053 53.9578 1.30738C54.1432 1.24423 54.3397 1.22172 54.5343 1.24133C59.2729 1.24133 64.0115 1.24133 68.781 1.24133C69.1058 1.22136 69.4258 1.3279 69.6756 1.53919C69.9255 1.75047 70.0863 2.05054 70.1252 2.37804C70.1998 2.80907 70.2247 3.24743 70.1995 3.6843C70.1995 11.6286 70.1995 19.5793 70.1995 27.5487C70.1659 28.5496 70.315 29.5482 70.6393 30.4941C71.052 31.4228 71.7773 32.1722 72.6852 32.6083C73.5931 33.0444 74.6245 33.1387 75.5947 32.8743C77.0069 32.6196 78.2759 31.8431 79.1564 30.6951C79.442 30.2264 79.5822 29.6817 79.559 29.1313C79.5838 20.7578 79.5838 12.3697 79.559 3.9669C79.559 1.3481 79.6457 1.26646 82.2473 1.26646C86.3768 1.26646 90.5062 1.26646 94.6357 1.26646C96.2648 1.26646 96.6055 1.61186 96.6055 3.25097C96.6055 17.3184 96.6055 31.3838 96.6055 45.447C96.6055 47.1929 96.3949 47.3939 94.6605 47.3939C91.5634 47.3939 88.4663 47.3939 85.3692 47.3939C84.9241 47.4613 84.4705 47.354 84.1009 47.0937C83.7313 46.8334 83.4738 46.4398 83.3808 45.9934C83.1538 45.3723 82.8932 44.7643 82.6003 44.1722Z" fill="#37AAE5"/>
<path d="M203.35 13.789C201.658 8.93335 198.214 4.90786 193.712 2.52246C190.241 0.74267 186.374 -0.094683 182.488 0.0920514C178.684 0.182282 174.983 1.36475 171.815 3.50215C170.23 4.53837 170.186 4.58233 169.437 2.7925C169.284 2.29415 168.965 1.86532 168.535 1.57987C168.104 1.29443 167.588 1.17026 167.077 1.22875C164.147 1.30411 161.217 1.22875 158.287 1.22875C156.534 1.22875 156.125 1.61812 156.125 3.35771C156.125 22.5749 156.125 41.792 156.125 61.0091C156.125 62.7362 156.435 63.0313 158.188 63.0313C161.985 63.0313 165.776 63.0313 169.567 63.0313C170.341 63.0313 171.116 63.0313 171.89 63.0313C172.807 62.9748 173.098 62.6859 173.184 61.7753C173.215 61.3797 173.184 60.9903 173.184 60.5947V45.648C173.556 45.8552 173.729 45.9683 173.903 46.0436C175.204 46.7046 176.537 47.2978 177.898 47.8209C180.663 48.6787 183.586 48.8807 186.44 48.4112C192.318 47.6388 197.131 44.9949 200.6 40.0838C203.193 36.3527 204.725 31.9708 205.029 27.4168C205.5 22.8039 204.926 18.1427 203.35 13.789ZM184.737 32.039C183.961 32.8435 183.008 33.4506 181.957 33.8106C180.905 34.1706 179.785 34.2734 178.687 34.1105C177.588 33.9476 176.544 33.5236 175.638 32.8733C174.733 32.223 173.992 31.3646 173.475 30.3685C172.33 28.067 171.886 25.4721 172.199 22.914C172.315 21.0361 172.899 19.2187 173.897 17.6324C174.549 16.6019 175.456 15.762 176.527 15.1958C177.598 14.6297 178.797 14.3569 180.004 14.4045C181.211 14.4521 182.385 14.8184 183.409 15.4671C184.434 16.1159 185.274 17.0246 185.845 18.1034C186.914 20.1394 187.437 22.4239 187.363 24.7289C187.295 27.2284 186.818 29.9351 184.737 32.039Z" fill="#37AAE5"/>
<path d="M30.7729 48.3171C33.8463 47.9133 36.7909 46.8144 39.3891 45.1016C39.5501 44.9949 39.7112 44.8881 39.8722 44.7688C41.6628 43.4663 43.2266 41.8702 44.4993 40.0461C47.0675 36.3054 48.5834 31.9267 48.8848 27.3792C49.3619 22.7697 48.7941 18.1107 47.2247 13.7576C45.5374 8.88947 42.0935 4.85031 37.5865 2.45338C34.1115 0.687427 30.2449 -0.13686 26.3626 0.0606612C22.5586 0.151577 18.858 1.33399 15.69 3.47076C14.1104 4.50698 14.0795 4.5635 13.3114 2.76111C13.1621 2.26074 12.8437 1.82971 12.4121 1.54372C11.9805 1.25774 11.4633 1.13511 10.9514 1.19736C8.02152 1.27272 5.09165 1.19736 2.16178 1.19736C0.408819 1.22876 0 1.61185 0 3.35144V61.0029C0 62.7299 0.309711 63.0251 2.06887 63.0251H13.4415C14.2157 63.0251 14.99 63.0251 15.7705 63.0251C16.6934 62.9686 17.0093 62.6734 17.0589 61.7691C17.0899 61.3734 17.0589 60.9778 17.0589 60.5884V45.6166C17.4243 45.8238 17.5978 45.9369 17.7774 46.0122C19.0769 46.6767 20.4105 47.27 21.7727 47.7895C24.3794 48.5928 27.128 48.8072 29.8252 48.4175L30.7729 48.3171ZM24.4672 34.1303C23.0458 34.3067 21.605 34.0408 20.3361 33.3678C19.0672 32.6948 18.0301 31.6466 17.3624 30.3622C16.2132 28.0532 15.7751 25.4472 16.105 22.8826C16.2152 21.0045 16.7927 19.1854 17.7836 17.5947C18.4366 16.5641 19.3435 15.7239 20.4148 15.1575C21.4861 14.591 22.6846 14.3177 23.892 14.3646C25.0993 14.4115 26.2737 14.7771 27.2991 15.4251C28.3244 16.0731 29.1652 16.9811 29.7385 18.0595C30.7997 20.1 31.3185 22.3857 31.2437 24.6913C31.1817 27.2033 30.6924 29.8975 28.6297 32.039C28.5353 32.145 28.4293 32.2398 28.3138 32.3216C28.1114 32.5194 27.8916 32.6981 27.6572 32.8554C26.9785 33.3557 26.2108 33.7182 25.3963 33.923" fill="#37AAE5"/>
<path d="M150.631 16.8474C148.662 8.68325 143.911 3.03115 135.728 0.839391C130.715 -0.622142 125.347 -0.163933 120.645 2.12681C119.27 2.80507 117.975 3.66544 116.575 4.48186C116.297 3.85385 116.006 3.17559 115.714 2.49734C115.57 2.0912 115.294 1.74639 114.932 1.51851C114.57 1.29063 114.143 1.19299 113.72 1.24132C110.703 1.3104 107.693 1.24132 104.676 1.24132C102.868 1.24132 102.552 1.77513 102.552 3.37028C102.585 22.5749 102.585 41.7857 102.552 61.0029C102.552 62.8869 102.731 63.0439 104.534 63.0439C108.926 63.0439 113.317 63 117.703 63.0439C119.202 63.0439 119.654 62.4159 119.629 61.0154C119.58 56.431 119.629 51.8402 119.629 47.2557V45.6166C120.249 45.9808 120.596 46.1881 120.961 46.3953C122.726 47.3938 124.655 48.0618 126.653 48.3673C129.64 48.7928 132.68 48.6265 135.604 47.8774C138.71 47.1382 141.586 45.6275 143.973 43.4814C149.671 38.3505 151.511 31.5491 151.567 24.1951C151.546 21.7167 151.232 19.2498 150.631 16.8474ZM132.557 30.0168C131.318 32.5665 129.28 34.0423 126.468 34.1868C123.563 34.325 121.203 33.0689 119.92 30.4187C117.851 26.1294 117.808 21.727 120.366 17.601C123.086 13.2049 129.478 13.2049 132.241 18.1537C133.307 20.061 133.788 22.2477 133.622 24.4338C133.761 26.3576 133.393 28.2844 132.557 30.0168Z" fill="#37AAE6"/>
<path d="M39.8718 44.7688C39.1416 43.101 38.2537 41.5089 37.2207 40.0147C34.4023 35.8887 30.9707 33.0375 28.3134 32.3279C27.854 32.1583 27.363 32.0951 26.8764 32.143C26.3898 32.1908 25.92 32.3484 25.5012 32.6042C24.9947 32.9782 24.6296 33.5167 24.4668 34.1303C24.7821 34.0898 25.093 34.0205 25.3959 33.923C25.547 33.6404 25.7586 33.3957 26.0154 33.2071C26.493 32.8858 27.0714 32.7559 27.6382 32.8428C30.1159 33.0752 33.7333 35.9829 36.7313 40.335C37.7565 41.8298 38.64 43.4194 39.3701 45.0828C40.9372 48.7629 41.1354 51.9093 39.6055 52.9894C39.2531 53.2412 38.8348 53.3811 38.4038 53.3914C37.4947 53.3613 36.6081 53.0977 35.827 52.6252C33.9076 51.5062 32.202 50.047 30.7911 48.317L30.3513 48.3673C30.2026 48.3673 30.0416 48.4112 29.8867 48.4238C31.4754 50.4505 33.4437 52.1387 35.6783 53.3914C36.47 53.8288 37.3439 54.092 38.2427 54.1638C38.8656 54.2199 39.4885 54.0581 40.0081 53.7054C41.7982 52.4619 41.6372 48.8697 39.8718 44.7688Z" fill="#FCEF0A"/>
<path d="M40.4364 49.3972L38.5781 49.0707C38.3029 49.0164 38.0198 49.0183 37.7453 49.0765C37.4708 49.1346 37.2106 49.2477 36.9798 49.4091C36.749 49.5706 36.5524 49.7771 36.4014 50.0166C36.2504 50.2562 36.1481 50.5238 36.1004 50.804L34.7935 58.5411L43.5211 71.1013C43.8459 71.5612 44.3369 71.8721 44.887 71.9662C45.4371 72.0604 46.0015 71.93 46.4572 71.6037L54.392 65.9516C54.6191 65.79 54.8124 65.5845 54.961 65.3469C55.1095 65.1093 55.2102 64.8443 55.2574 64.5671C55.3046 64.2899 55.2973 64.006 55.236 63.7317C55.1746 63.4573 55.0604 63.198 54.8999 62.9686L46.1722 50.4083L41.3965 49.5668C41.5094 50.4428 41.4504 51.3328 41.2231 52.1856C41.6259 52.3351 41.9717 52.6101 42.2109 52.9711C42.4501 53.3321 42.5705 53.7606 42.5548 54.1952C42.5589 54.624 42.4389 55.0445 42.2095 55.4048C41.9802 55.7651 41.6517 56.0492 41.2647 56.2221C40.8777 56.395 40.4492 56.449 40.0322 56.3774C39.6153 56.3058 39.2282 56.1118 38.9189 55.8194C38.6096 55.527 38.3916 55.149 38.2921 54.7323C38.1925 54.3156 38.2157 53.8784 38.3588 53.4749C38.5019 53.0714 38.7585 52.7194 39.097 52.4623C39.4354 52.2052 39.8408 52.0544 40.263 52.0286C40.5307 51.1793 40.6006 50.2786 40.4674 49.3972H40.4364Z" fill="#FCEF0A"/>
</svg>
