<svg width="294" height="243" viewBox="0 0 294 243" fill="none" xmlns="http://www.w3.org/2000/svg">
<path opacity="0.1" fill-rule="evenodd" clip-rule="evenodd" d="M138.986 -32.1126C157.049 8.94043 163.265 58.2546 144.581 99.029C126.283 138.962 84.7194 164.302 42.8692 177.647C7.06347 189.064 -28.9942 164.604 -66.5358 166.347C-110.964 168.41 -155.955 210.397 -194.768 188.68C-232.792 167.405 -230.947 112.047 -239.824 69.3892C-248.165 29.3098 -262.62 -13.615 -244.507 -50.328C-226.835 -86.1459 -180.83 -93.533 -148.13 -116.466C-113.666 -140.635 -90.0482 -188.606 -47.9563 -188.171C-5.87635 -187.735 18.3638 -141.378 50.669 -114.409C82.3342 -87.9755 122.373 -69.8679 138.986 -32.1126Z" fill="#37AAE5"/>
<path opacity="0.1" fill-rule="evenodd" clip-rule="evenodd" d="M244.986 -44.1126C263.049 -3.05957 269.265 46.2546 250.581 87.029C232.283 126.962 190.719 152.302 148.869 165.647C113.063 177.064 77.0058 152.604 39.4642 154.347C-4.96376 156.41 -49.9545 198.397 -88.7679 176.68C-126.792 155.405 -124.947 100.047 -133.824 57.3892C-142.165 17.3098 -156.62 -25.615 -138.507 -62.328C-120.835 -98.1459 -74.8297 -105.533 -42.1297 -128.466C-7.66605 -152.635 15.9518 -200.606 58.0437 -200.171C100.124 -199.735 124.364 -153.378 156.669 -126.409C188.334 -99.9755 228.373 -81.8679 244.986 -44.1126Z" fill="#37AAE5"/>
</svg>
