<svg width="208" height="295" viewBox="0 0 208 295" fill="none" xmlns="http://www.w3.org/2000/svg">
<path opacity="0.1" fill-rule="evenodd" clip-rule="evenodd" d="M436.986 -44.1126C455.049 -3.05957 461.265 46.2546 442.581 87.029C424.283 126.962 382.719 152.302 340.869 165.647C305.063 177.064 269.006 152.604 231.464 154.347C187.036 156.41 142.045 198.397 103.232 176.68C65.2077 155.405 67.053 100.047 58.1757 57.3892C49.835 17.3098 35.3803 -25.615 53.4932 -62.328C71.1646 -98.1459 117.17 -105.533 149.87 -128.466C184.334 -152.635 207.952 -200.606 250.044 -200.171C292.124 -199.735 316.364 -153.378 348.669 -126.409C380.334 -99.9755 420.373 -81.8679 436.986 -44.1126Z" fill="#37AAE5"/>
<path opacity="0.1" fill-rule="evenodd" clip-rule="evenodd" d="M497.986 19.8874C516.049 60.9404 522.265 110.255 503.581 151.029C485.283 190.962 443.719 216.302 401.869 229.647C366.063 241.064 330.006 216.604 292.464 218.347C248.036 220.41 203.045 262.397 164.232 240.68C126.208 219.405 128.053 164.047 119.176 121.389C110.835 81.3098 96.3803 38.385 114.493 1.67202C132.165 -34.1459 178.17 -41.533 210.87 -64.4658C245.334 -88.6355 268.952 -136.606 311.044 -136.171C353.124 -135.735 377.364 -89.3775 409.669 -62.4093C441.334 -35.9755 481.373 -17.8679 497.986 19.8874Z" fill="#37AAE5"/>
</svg>
