<svg width="35" height="24" viewBox="0 0 35 24" fill="none" xmlns="http://www.w3.org/2000/svg">
<path d="M17.6127 0H17.8074C19.6056 0.00640626 28.7171 0.0704693 31.1738 0.715366C31.9165 0.912185 32.5933 1.29582 33.1365 1.82794C33.6797 2.36005 34.0703 3.02201 34.2693 3.74766C34.4903 4.55912 34.6456 5.63324 34.7506 6.74153L34.7725 6.96361L34.8206 7.51882L34.8381 7.7409C34.9803 9.69268 34.9978 11.5206 35 11.9199V12.0801C34.9978 12.4944 34.9781 14.4461 34.8206 16.479L34.8031 16.7033L34.7834 16.9254C34.674 18.1468 34.5122 19.3597 34.2693 20.2523C34.0709 20.9783 33.6805 21.6406 33.1372 22.1728C32.5939 22.705 31.9168 23.0884 31.1738 23.2846C28.6362 23.9509 18.9909 23.9979 17.6542 24H17.3436C16.6676 24 13.8718 23.9872 10.9404 23.889L10.5685 23.8761L10.3781 23.8676L10.0041 23.8527L9.62998 23.8377C7.2017 23.7331 4.88937 23.5644 3.82399 23.2825C3.08126 23.0865 2.40436 22.7033 1.86108 22.1715C1.3178 21.6397 0.927223 20.9779 0.728483 20.2523C0.485655 19.3619 0.32377 18.1468 0.214388 16.9254L0.196887 16.7011L0.179386 16.479C0.0714211 15.0321 0.0115942 13.5821 0 12.1313L0 11.8708C0.00437527 11.4117 0.0218764 9.82507 0.140009 8.07403L0.155322 7.85408L0.161885 7.74304L0.179386 7.52095L0.227514 6.96574L0.249391 6.74366C0.354397 5.63538 0.509719 4.55912 0.730671 3.7498C0.929075 3.02386 1.3195 2.36159 1.8628 1.82938C2.4061 1.29717 3.08319 0.91373 3.82618 0.717502C4.89156 0.439897 7.20389 0.269063 9.63216 0.162292L10.0041 0.147344L10.3803 0.134532L10.5685 0.128125L10.9426 0.113178C13.0245 0.0470674 15.1074 0.0100495 17.1905 0.00213552H17.6127V0ZM14.0009 6.8547V17.1432L23.0949 12.0011L14.0009 6.8547Z" fill="#36AAE7"/>
</svg>
